<?xml version="1.0" standalone="no"?>
<svg xmlns:xlink="http://www.w3.org/1999/xlink" id="wave" style="transform:rotate(0deg); transition: 0.3s" viewBox="0 0 1440 300" version="1.1" xmlns="http://www.w3.org/2000/svg"><defs><linearGradient id="sw-gradient-0" x1="0" x2="0" y1="1" y2="0"><stop stop-color="rgba(89.723, 137.185, 202.549, 1)" offset="0%"/><stop stop-color="rgba(85.814, 168.129, 225.316, 1)" offset="100%"/></linearGradient></defs><path style="transform:translate(0, 0px); opacity:1" fill="url(#sw-gradient-0)" d="M0,210L34.3,200C68.6,190,137,170,206,140C274.3,110,343,70,411,75C480,80,549,130,617,170C685.7,210,754,240,823,250C891.4,260,960,250,1029,230C1097.1,210,1166,180,1234,155C1302.9,130,1371,110,1440,105C1508.6,100,1577,110,1646,110C1714.3,110,1783,100,1851,105C1920,110,1989,130,2057,125C2125.7,120,2194,90,2263,95C2331.4,100,2400,140,2469,170C2537.1,200,2606,220,2674,205C2742.9,190,2811,140,2880,115C2948.6,90,3017,90,3086,110C3154.3,130,3223,170,3291,190C3360,210,3429,210,3497,210C3565.7,210,3634,210,3703,200C3771.4,190,3840,170,3909,160C3977.1,150,4046,150,4114,155C4182.9,160,4251,170,4320,165C4388.6,160,4457,140,4526,120C4594.3,100,4663,80,4731,85C4800,90,4869,120,4903,135L4937.1,150L4937.1,300L4902.9,300C4868.6,300,4800,300,4731,300C4662.9,300,4594,300,4526,300C4457.1,300,4389,300,4320,300C4251.4,300,4183,300,4114,300C4045.7,300,3977,300,3909,300C3840,300,3771,300,3703,300C3634.3,300,3566,300,3497,300C3428.6,300,3360,300,3291,300C3222.9,300,3154,300,3086,300C3017.1,300,2949,300,2880,300C2811.4,300,2743,300,2674,300C2605.7,300,2537,300,2469,300C2400,300,2331,300,2263,300C2194.3,300,2126,300,2057,300C1988.6,300,1920,300,1851,300C1782.9,300,1714,300,1646,300C1577.1,300,1509,300,1440,300C1371.4,300,1303,300,1234,300C1165.7,300,1097,300,1029,300C960,300,891,300,823,300C754.3,300,686,300,617,300C548.6,300,480,300,411,300C342.9,300,274,300,206,300C137.1,300,69,300,34,300L0,300Z"/></svg>